<svg width="15" height="15" viewBox="0 0 15 15" xmlns="http://www.w3.org/2000/svg" fill="none"><path fill-rule="evenodd" clip-rule="evenodd" d="M7.333 14.667c-4.05 0-7.333-3.283-7.333-7.333 0-4.05 3.283-7.333 7.333-7.333 4.05 0 7.333 3.283 7.333 7.333 0 4.05-3.283 7.333-7.333 7.333zm0-1.333c3.314 0 6-2.686 6-6s-2.686-6-6-6-6 2.686-6 6 2.686 6 6 6zm-2.195-2.862l2.195-2.195 2.195 2.195.943-.943-2.195-2.195 2.195-2.195-.943-.943-2.195 2.195-2.195-2.195-.943.943 2.195 2.195-2.195 2.195.943.943z" fill="#111"/></svg>