<svg width="80" height="80" viewBox="0 0 80 80" xmlns="http://www.w3.org/2000/svg" fill="none"><path d="M.025 40.051c-.799-20.623 17.638-39.681 38.708-39.928 10.739-.897 21.187 3.188 29.314 9.852-3.334 3.591-6.726 7.141-10.349 10.464-7.155-4.259-15.769-7.504-24.13-4.622-13.487 3.763-21.654 19.364-16.663 32.291 4.133 13.501 20.894 20.91 34.029 15.238 6.802-2.386 11.286-8.535 13.254-15.142-7.795-.152-15.592-.057-23.388-.268-.019-4.544-.039-9.071-.019-13.615 13-.019 26.019-.057 39.038.057.799 11.134-.877 23.049-8.265 31.985-10.116 12.755-28.806 16.499-44.01 11.495-16.136-5.193-27.87-21.119-27.519-37.808z" fill="#fff"/></svg>